<?xml version="1.0" encoding="utf-8"?>
<!-- Generator: Adobe Illustrator 24.1.2, SVG Export Plug-In . SVG Version: 6.00 Build 0)  -->
<svg version="1.1" id="Слой_1" xmlns="http://www.w3.org/2000/svg" xmlns:xlink="http://www.w3.org/1999/xlink" x="0px" y="0px"
	 viewBox="0 0 193.3 42.6" style="enable-background:new 0 0 193.3 42.6;" xml:space="preserve">
<style type="text/css">
	.st0{fill:#C42A4B;}
	.st1{fill:#222222;}
	.st2{fill:#FFFFFF;}
</style>
<g>
	<rect x="0" y="31.3" class="st0" width="192.7" height="11.3"/>
	<g>
		<g>
			<g>
				<path class="st1" d="M10,13.1c2-1.9,5.1-5.1,8-8.4c1.2-1.4,1.9-2.4,1.9-3c0-0.4-0.1-0.6-1-0.8c-0.3,0-0.6-0.1-0.6-0.4
					c0-0.2,0.2-0.3,0.6-0.3c1.7,0,1.8,0.1,3.9,0.1c2.1,0,4.9-0.1,5.3-0.1c0.6,0,0.8,0.1,0.8,0.3s-0.2,0.3-0.7,0.4
					C27.6,1,27.3,1,26.9,1.1c-1.8,0.4-3,1.5-4.8,3.2c-1.7,1.6-5.9,6-6.9,7c1.4,2.3,7.6,9.7,10,12.3c2.2,2.3,3.2,3.1,3.9,3.4
					c0.7,0.3,1.1,0.4,1.7,0.5c0.5,0,0.8,0.1,0.8,0.4c0,0.3-0.3,0.3-0.7,0.3h-3.6c-4.9,0-6.6-0.5-8.5-2.6c-2-2.2-6.1-7.4-8.8-11.5
					v3.3c0,2.9,0,6.3,0.2,7.8c0.1,0.9,0.3,1.9,1.6,2c0.5,0.1,1.1,0.1,1.6,0.1c0.4,0,0.6,0.2,0.6,0.4s-0.1,0.4-0.7,0.4
					c-2.4,0-6.4-0.1-6.7-0.1c-0.2,0-4.4,0.1-5.6,0.1c-0.5,0-0.7-0.1-0.7-0.4c0-0.3,0.3-0.4,0.7-0.4s0.7,0,1.1-0.1
					c1.1-0.2,1.3-1.1,1.4-2.1c0.1-1.6,0.2-4.2,0.2-7.7v-6.5c0-5.7,0-6.8-0.1-8C3.5,1.9,3.1,1.2,2.2,1c-0.6-0.1-1-0.1-1.4-0.1
					C0.3,0.9,0,0.8,0,0.5c0-0.2,0.3-0.3,1-0.3c1.6,0,5.4,0.1,5.6,0.1c0.3,0,4.8-0.1,6.2-0.1c0.6,0,0.8,0.1,0.8,0.3
					c0,0.3-0.2,0.4-0.7,0.4c-0.3,0-0.6,0-1.1,0.1c-1.3,0.2-1.5,1-1.6,2.2s-0.1,1.9-0.1,7.7L10,13.1L10,13.1z"/>
			</g>
			<g>
				<path class="st1" d="M35.7,19.8c0-1.7-0.4-2.3-1-3.4c-1.5-2.6-4.5-7.5-5.6-9.1c-1.4-2.1-1.7-2.3-2.8-2.5c-0.1,0-0.5-0.1-0.7-0.1
					c-0.4-0.1-0.5-0.2-0.5-0.4c0-0.2,0.3-0.4,0.7-0.4c1.6,0,4,0.1,5.3,0.1c0.5,0,2.9-0.1,5.1-0.1c0.4,0,0.6,0.1,0.6,0.3
					c0,0.2-0.1,0.3-0.6,0.4C35.2,4.7,35,5,35,5.2s0.1,0.5,0.3,0.9c0.5,0.9,4.5,7.9,5.1,8.8c2.4-4.3,3.7-6.7,4.3-8
					c0.3-0.7,0.6-1.1,0.6-1.5S45.2,4.7,44,4.5c-0.3,0-0.5-0.1-0.5-0.4c0-0.2,0.2-0.4,0.7-0.4c1.4,0,2.6,0.1,3.9,0.1
					c0.4,0,3.3-0.1,3.9-0.1c0.4,0,0.6,0.1,0.6,0.3c0,0.3-0.2,0.4-0.6,0.4c-0.5,0-0.9,0.1-1.3,0.2c-1,0.4-1.3,0.9-1.9,1.6
					c-1.1,1.3-5.9,9.3-6.3,10.6c-0.5,1.4-0.5,2.7-0.5,3v2.3c0,0.5,0,1.6,0.1,3c0.1,0.8,0.1,1.7,1.4,1.9c0.6,0.1,1.3,0.1,1.9,0.2
					c0.4,0,0.6,0.2,0.6,0.4S45.9,28,45.4,28c-2.4,0-5.5-0.1-6.6-0.1c-1,0-3.8,0.1-5.4,0.1c-0.5,0-0.7-0.1-0.7-0.4
					c0-0.1,0.1-0.3,0.6-0.3s0.9-0.1,1.1-0.1c0.9-0.2,1.1-0.8,1.2-1.7c0.1-1.4,0.1-2.7,0.1-3.2L35.7,19.8L35.7,19.8z"/>
			</g>
			<g>
				<path class="st1" d="M56.1,13.2c0-5,0-5.9-0.1-6.9c-0.1-0.9-0.3-1.4-1.1-1.6c-0.2-0.1-0.6-0.1-1-0.1s-0.6-0.1-0.6-0.4
					c0-0.2,0.1-0.4,0.7-0.4c1.3,0,4.9,0.1,5,0.1c0.2,0,4.4-0.1,5.6-0.1c0.6,0,0.7,0.1,0.7,0.4S65,4.5,64.6,4.6c-0.3,0-0.4,0-0.7,0.1
					c-0.9,0.2-1.2,0.5-1.3,1.6c-0.1,1-0.1,1.8-0.1,6.8v5.6c0,2.4,0,5.5,0.2,6.9c0.1,0.8,0.3,1.4,1.3,1.6c0.4,0.1,1,0.1,1.4,0.1
					c0.6,0,0.7,0.2,0.7,0.4c0,0.1-0.1,0.3-0.7,0.3c-2.3,0-6.1-0.1-6.3-0.1c-0.1,0-3.9,0.1-5,0.1c-0.6,0-0.8-0.1-0.8-0.4
					c0-0.2,0.2-0.4,0.6-0.4c0.3,0,0.6,0,1.1-0.1c0.7-0.1,1-0.8,1.1-1.7c0.2-1.3,0.2-3.6,0.2-6.7L56.1,13.2L56.1,13.2z"/>
			</g>
			<g>
				<path class="st1" d="M69,7.2c-1-2.1-1.3-2.3-2.4-2.4c0,0-0.6-0.1-0.8-0.1c-0.3,0-0.4-0.2-0.4-0.4c0-0.2,0.2-0.4,0.6-0.4
					c1.8,0,3.8,0.1,5.1,0.1c1.3,0,3.1-0.1,5.9-0.1c0.6,0,0.7,0.1,0.7,0.4c0,0.2-0.2,0.3-0.5,0.4c-0.4,0-0.5,0.1-0.8,0.1
					c-1,0.1-1.1,0.4-1.1,0.8s0.1,1,0.7,2.4c1.5,3.7,3.5,8.3,5,11.9c1.3-2.8,3.9-8.9,5.5-12.6C86.9,6.4,87,6,87,5.7
					c0-0.4-0.2-0.6-0.9-0.7c-0.4-0.1-1-0.1-1.3-0.2c-0.5-0.1-0.6-0.2-0.6-0.4c0-0.2,0.2-0.4,0.7-0.4c2.3,0,4,0.1,4.5,0.1
					S92.2,4,93.3,4C93.8,4,94,4.1,94,4.4c0,0.2-0.2,0.3-0.6,0.4c-0.4,0-0.9,0-1.4,0.3c-0.8,0.3-1.2,1-2.1,2.8
					c-1.3,2.7-2.6,5.5-4.5,9.6c-2.1,4.5-3.6,7.3-4.4,9c-1,1.9-1.3,2.3-1.8,2.3c-0.4,0-0.7-0.4-1.3-1.9L69,7.2z"/>
			</g>
			<g>
				<path class="st1" d="M104,10.9c0-4.1,0-6.8-0.1-8c-0.1-1-0.4-1.7-1.3-1.9c-0.5-0.1-1-0.1-1.4-0.1c-0.5,0-0.7-0.1-0.7-0.4
					c0-0.2,0.1-0.4,0.8-0.4c1.6,0,5.4,0.1,6,0.1c1.8,0,3.9-0.1,5.6-0.1c5,0,7.5,1.2,9,2.6c0.8,0.8,2,2.4,2,4.9
					c0,5.7-5.2,8.8-10.3,8.8c-0.3,0-0.9,0-1.1-0.1s-0.4-0.1-0.4-0.4c0-0.2,0.1-0.4,0.8-0.4c3.1,0,4.6-2.4,4.6-5.7
					c0-2.6-0.5-4.6-1.8-6c-1-1-2.2-1.5-3.5-1.5c-0.5,0-0.8,0-1,0.1c-0.3,0.1-0.4,0.3-0.4,0.9v14.2c0,2.9,0,6.3,0.2,7.8
					c0.1,1.1,0.3,1.8,1.4,2c0.5,0.1,1.2,0.1,1.6,0.2c0.6,0,0.7,0.1,0.7,0.4c0,0.2-0.2,0.3-0.7,0.3c-2.6,0-6.5-0.1-6.8-0.1
					c-0.2,0-4.2,0.1-5.5,0.1c-0.5,0-0.7-0.1-0.7-0.4s0.3-0.4,0.7-0.4c0.4,0,0.7-0.1,1.1-0.1c0.7-0.1,1.1-0.7,1.2-2.1
					c0.1-1.6,0.2-4.2,0.2-7.8L104,10.9L104,10.9z"/>
			</g>
			<g>
				<path class="st1" d="M124.6,16.1c0-6.7,4.6-12.7,14.3-12.7c8.4,0,13.7,5.7,13.7,12c0,7.5-5.2,13.2-14,13.2
					C128.8,28.6,124.6,21.8,124.6,16.1z M145.5,16.9c0-4.9-1.8-11.3-7.8-11.3c-2.9,0-6.1,1.4-6.1,9c0,5.9,2.4,11.8,7.9,11.8
					C141.6,26.4,145.5,25.6,145.5,16.9z"/>
			</g>
			<g>
				<path class="st1" d="M153.8,27.7c-0.6-0.2-0.7-0.7-0.7-1.3c0-2.8,0.1-4,0.2-5c0.1-0.6,0.3-0.7,0.4-0.7c0.2,0,0.3,0.1,0.3,0.5
					c0,0.3,0,0.6,0.1,0.9c0.4,2.8,3.1,4.4,5.9,4.4c3,0,3.9-1.4,3.9-2.7s-0.4-2.3-3.3-4.2l-2-1.4c-4-2.7-5-4.9-5-7.9
					c0-3.7,3.3-6.8,8.6-6.8c1.5,0,2.5,0.1,4,0.4c0.5,0.1,1.1,0.2,1.7,0.4c0.3,0.1,0.4,0.2,0.4,0.5c0,1.2-0.1,1.7-0.1,4.7
					c0,0.6-0.1,0.8-0.4,0.8c-0.2,0-0.4-0.1-0.4-0.6c0-0.4-0.1-1.1-0.5-1.8c-0.7-1.2-2.4-2.3-4.6-2.3c-2.8,0-3.7,1.6-3.7,2.9
					c0,1.4,0.7,2.4,2.5,3.5l1.9,1.2c4.8,3,6.1,4.8,6.1,8c0,2.6-1.1,4.8-3.7,6.2c-2,1.1-4.3,1.3-6,1.3
					C156.8,28.6,155.1,28.2,153.8,27.7z"/>
			</g>
			<g>
				<path class="st1" d="M184.5,18.8c0,2.4,0,5.3,0.1,6.7c0.1,0.8,0.3,1.6,1.3,1.8c0.4,0.1,0.8,0.1,1.3,0.1c0.6,0.1,0.7,0.2,0.7,0.4
					s-0.2,0.3-0.8,0.3c-2.3,0-5.8-0.1-6.3-0.1s-4,0.1-5,0.1c-0.6,0-0.8-0.1-0.8-0.3c0-0.3,0.3-0.4,0.7-0.4c0.3,0,0.7,0,1.1-0.1
					c0.7-0.1,1-0.8,1.1-1.7c0.1-1.4,0.1-3.6,0.1-6.8V6.5c-1.3,0-3.4,0-5,0.1c-1.8,0.1-2.4,0.6-2.9,1.9C170,8.7,170,9,169.8,9.2
					c-0.1,0.2-0.2,0.5-0.4,0.5c-0.3,0-0.3-0.3-0.3-0.7c0.2-1.6,0.5-3.2,0.7-4.7c0.1-0.5,0.3-0.7,0.4-0.7c0.2,0,0.4,0.1,1,0.2
					c0.5,0.1,2.5,0.3,3.8,0.3h14.8c1,0,1.6-0.1,2-0.1c0.6-0.1,0.9-0.2,1.1-0.2c0.4,0,0.3,0.2,0.3,1.1c0,0.4-0.2,3.7-0.3,4.5
					c0,0.5-0.2,0.7-0.4,0.7s-0.3-0.2-0.4-0.6c0-0.4,0-0.6,0-0.8c-0.1-1-0.5-1.7-2.3-1.9c-1.2-0.1-3-0.2-5.6-0.2L184.5,18.8
					L184.5,18.8z"/>
			</g>
		</g>
	</g>
	<g>
		<path class="st2" d="M12,40c-0.5-0.5-0.8-1.3-0.8-2.4v-4.8h0.9v4.8c0,0.8,0.2,1.3,0.6,1.7s0.9,0.6,1.6,0.6s1.3-0.2,1.6-0.6
			c0.4-0.4,0.6-1,0.6-1.7v-4.8h0.9v4.8c0,1-0.3,1.8-0.8,2.3s-1.3,0.8-2.3,0.8C13.3,40.8,12.6,40.6,12,40z"/>
		<path class="st2" d="M25.9,40.7l-4-3.7v3.7H21v-7.8h0.9v3.6l3.8-3.6h1.2l-4.1,3.8l4.3,4H25.9L25.9,40.7z"/>
		<path class="st2" d="M35.6,40.7h-1l-1.3-2.5c-0.2-0.3-0.4-0.5-0.6-0.6c-0.2-0.1-0.5-0.2-0.9-0.2h-1.5v3.3h-0.9v-7.8h3.2
			c0.9,0,1.5,0.2,1.9,0.6c0.4,0.4,0.7,0.9,0.7,1.7c0,0.6-0.2,1.1-0.5,1.5s-0.8,0.6-1.5,0.7c0.2,0.1,0.4,0.2,0.5,0.3
			c0.2,0.1,0.3,0.3,0.4,0.6L35.6,40.7z M32.6,36.7c0.6,0,1.1-0.1,1.4-0.4c0.3-0.3,0.5-0.6,0.5-1.1s-0.1-0.9-0.4-1.1
			c-0.3-0.2-0.8-0.4-1.4-0.4h-2.2v3H32.6L32.6,36.7z"/>
		<path class="st2" d="M43.7,38.7h-4.1l-0.9,2h-0.9l3.4-7.8H42l3.4,7.8h-0.9L43.7,38.7z M43.3,38l-1.7-4l-1.7,4H43.3z"/>
		<path class="st2" d="M48.2,32.9h0.9v7.8h-0.9V32.9z"/>
		<path class="st2" d="M58.8,32.9v7.8h-0.7l-4.7-6.3v6.3h-0.8v-7.8h0.7l4.7,6.3v-6.3H58.8z"/>
		<path class="st2" d="M62.3,32.9h5v0.8h-4.1v2.7H67v0.7h-3.8v2.8h4.1v0.8h-5V32.9z"/>
		<path class="st2" d="M71.2,32.9v0.8c0,0.3-0.1,0.6-0.2,0.9c-0.1,0.3-0.3,0.5-0.5,0.8l-0.4-0.3c0.3-0.3,0.5-0.6,0.5-0.9h-0.5v-1.1
			h1.1V32.9z"/>
		<path class="st2" d="M74,39.8l0.4-0.7c0.4,0.3,0.8,0.6,1.2,0.7C76,39.9,76.5,40,77,40c0.6,0,1.1-0.1,1.5-0.4
			c0.3-0.2,0.5-0.6,0.5-1c0-0.3-0.1-0.5-0.2-0.6c-0.2-0.2-0.4-0.3-0.6-0.4c-0.3-0.1-0.6-0.2-1.1-0.3c-0.6-0.1-1.1-0.3-1.5-0.4
			c-0.4-0.2-0.7-0.4-0.9-0.7c-0.2-0.3-0.4-0.7-0.4-1.1c0-0.4,0.1-0.8,0.3-1.2s0.6-0.6,1-0.8s0.9-0.3,1.5-0.3c0.5,0,1,0.1,1.5,0.3
			s0.9,0.4,1.2,0.7l-0.3,0.7c-0.4-0.3-0.7-0.6-1.1-0.7s-0.8-0.2-1.2-0.2c-0.6,0-1.1,0.1-1.4,0.4c-0.3,0.3-0.5,0.6-0.5,1.1
			c0,0.4,0.2,0.7,0.5,0.9s0.8,0.4,1.4,0.5c0.7,0.2,1.2,0.3,1.6,0.5c0.4,0.1,0.7,0.3,1,0.6s0.4,0.6,0.4,1.1c0,0.4-0.1,0.8-0.3,1.2
			c-0.2,0.3-0.6,0.6-1,0.8S78,41,77.4,41C75.7,40.8,74.7,40.5,74,39.8z"/>
		<path class="st2" d="M93.5,36.7v3.6c-0.3,0.2-0.7,0.3-1.2,0.4c-0.5,0.1-1,0.2-1.5,0.2c-0.8,0-1.4-0.2-2-0.5s-1-0.8-1.3-1.4
			c-0.3-0.6-0.5-1.3-0.5-2.2c0-0.8,0.1-1.5,0.4-2.1s0.7-1.1,1.3-1.4c0.6-0.3,1.2-0.5,2-0.5c0.5,0,1.1,0.1,1.5,0.2
			c0.5,0.2,0.9,0.4,1.2,0.7l-0.3,0.7c-0.4-0.3-0.7-0.6-1.1-0.7c-0.4-0.1-0.8-0.2-1.2-0.2c-0.9,0-1.6,0.3-2,0.8s-0.7,1.4-0.7,2.4
			c0,1.1,0.2,1.9,0.7,2.4c0.5,0.6,1.2,0.8,2.1,0.8c0.7,0,1.3-0.1,1.9-0.3v-2.4h-1.9v-0.7L93.5,36.7L93.5,36.7z"/>
		<path class="st2" d="M96.9,32.9h0.9V40h3.9v0.8h-4.8V32.9z"/>
		<path class="st2" d="M105.4,40.3c-0.5-0.3-1-0.8-1.2-1.4c-0.3-0.6-0.4-1.3-0.4-2.1s0.1-1.5,0.4-2.1s0.7-1.1,1.2-1.4
			c0.5-0.3,1.2-0.5,1.9-0.5s1.4,0.2,1.9,0.5s0.9,0.8,1.2,1.4c0.3,0.6,0.4,1.3,0.4,2.1s-0.1,1.5-0.4,2.1s-0.7,1.1-1.2,1.4
			c-0.5,0.3-1.2,0.5-1.9,0.5S105.9,40.7,105.4,40.3z M109.2,39.2c0.5-0.6,0.7-1.4,0.7-2.4s-0.2-1.8-0.7-2.4
			c-0.5-0.6-1.1-0.8-1.9-0.8s-1.5,0.3-1.9,0.8c-0.5,0.6-0.7,1.4-0.7,2.4s0.2,1.8,0.7,2.4c0.5,0.6,1.1,0.8,1.9,0.8
			S108.8,39.8,109.2,39.2z"/>
		<path class="st2" d="M119.6,37.4c0.2,0.3,0.4,0.7,0.4,1.2c0,0.7-0.2,1.2-0.7,1.6c-0.5,0.4-1.1,0.6-1.9,0.6h-3.3V33h3.1
			c0.8,0,1.4,0.2,1.9,0.5c0.4,0.4,0.7,0.9,0.7,1.5c0,0.4-0.1,0.8-0.3,1.1s-0.5,0.5-0.9,0.7C119,36.8,119.3,37.1,119.6,37.4z
			 M115,36.4h2.1c0.6,0,1-0.1,1.3-0.4c0.3-0.2,0.5-0.6,0.5-1c0-0.9-0.6-1.3-1.8-1.3H115V36.4z M118.6,39.6c0.3-0.2,0.4-0.6,0.4-1.1
			c0-1-0.6-1.4-1.8-1.4h-2.3v2.8h2.3C117.9,40,118.3,39.9,118.6,39.6z"/>
		<path class="st2" d="M128.2,38.7h-4.1l-0.9,2h-0.9l3.4-7.8h0.8l3.4,7.8H129L128.2,38.7z M127.8,38l-1.7-4l-1.7,4H127.8z"/>
		<path class="st2" d="M132.7,32.9h0.9V40h3.9v0.8h-4.8L132.7,32.9L132.7,32.9z"/>
		<path class="st2" d="M151.3,32.9l-3.4,7.8h-0.8l-3.4-7.8h1l2.9,6.7l2.9-6.7H151.3z"/>
		<path class="st2" d="M155.1,40.3c-0.5-0.3-1-0.8-1.2-1.4c-0.3-0.6-0.4-1.3-0.4-2.1s0.1-1.5,0.4-2.1c0.3-0.6,0.7-1.1,1.2-1.4
			c0.5-0.3,1.2-0.5,1.9-0.5s1.4,0.2,1.9,0.5s0.9,0.8,1.2,1.4c0.3,0.6,0.4,1.3,0.4,2.1s-0.1,1.5-0.4,2.1c-0.3,0.6-0.7,1.1-1.2,1.4
			c-0.5,0.3-1.2,0.5-1.9,0.5C156.2,40.8,155.6,40.7,155.1,40.3z M158.9,39.2c0.5-0.6,0.7-1.4,0.7-2.4s-0.2-1.8-0.7-2.4
			s-1.1-0.8-1.9-0.8c-0.8,0-1.5,0.3-1.9,0.8s-0.7,1.4-0.7,2.4s0.2,1.8,0.7,2.4c0.5,0.6,1.1,0.8,1.9,0.8
			C157.8,40.1,158.4,39.8,158.9,39.2z"/>
		<path class="st2" d="M163.7,32.9h0.9v7.8h-0.9V32.9z"/>
		<path class="st2" d="M169.5,40.3c-0.5-0.3-1-0.8-1.3-1.4c-0.3-0.6-0.4-1.3-0.4-2.1s0.1-1.5,0.4-2.1c0.3-0.6,0.7-1.1,1.3-1.4
			c0.5-0.3,1.2-0.5,1.9-0.5c0.5,0,1,0.1,1.5,0.2c0.5,0.2,0.8,0.4,1.2,0.7l-0.3,0.7c-0.4-0.3-0.7-0.5-1.1-0.7
			c-0.4-0.1-0.8-0.2-1.2-0.2c-0.9,0-1.5,0.3-2,0.8c-0.5,0.6-0.7,1.4-0.7,2.4s0.2,1.8,0.7,2.4c0.5,0.6,1.1,0.8,2,0.8
			c0.4,0,0.8-0.1,1.2-0.2c0.4-0.1,0.7-0.4,1.1-0.7l0.3,0.7c-0.3,0.3-0.7,0.6-1.2,0.7c-0.5,0.2-0.9,0.2-1.5,0.2
			C170.7,40.8,170.1,40.7,169.5,40.3z"/>
		<path class="st2" d="M177.2,32.9h5v0.8h-4.1v2.7h3.8v0.7h-3.8v2.8h4.1v0.8h-5V32.9z"/>
	</g>
</g>
</svg>
